<?xml version="1.0" encoding="utf-8"?>
<!-- Generator: Adobe Illustrator 15.0.0, SVG Export Plug-In  -->
<!DOCTYPE svg PUBLIC "-//W3C//DTD SVG 1.1//EN" "http://www.w3.org/Graphics/SVG/1.1/DTD/svg11.dtd" [
	<!ENTITY ns_flows "http://ns.adobe.com/Flows/1.0/">
]>
<svg version="1.1"
	 xmlns="http://www.w3.org/2000/svg" xmlns:xlink="http://www.w3.org/1999/xlink" xmlns:a="http://ns.adobe.com/AdobeSVGViewerExtensions/3.0/"
	 x="0px" y="0px" width="369px" height="347px" viewBox="0 0 369 347" overflow="visible" enable-background="new 0 0 369 347"
	 xml:space="preserve">
<defs>
</defs>
<path fill="#FFFFFF" d="M124.841,237.447l1.096,16.561h120.492l0.223-3.348c0.379-5.745,0.761-11.488,1.141-17.233l36.166-10.903
	v-9.053c0-31.313-15.352-60.151-41.464-78.645c3.48-5.734,6.328-11.939,8.513-18.552c5.002-1.258,9.546-3.969,13.161-7.918
	c4.854-5.307,7.44-12.238,7.281-19.551c-0.001-0.045-0.003-0.09-0.005-0.136c0.008-0.215,0.011-0.434,0.006-0.667
	c-0.158-7.278-3.04-14.091-8.121-19.191c-2.831-2.834-6.148-4.953-9.787-6.273C245.279,25.998,217.352,0,185.515,0
	c-33.042,0-61.208,27.184-68.618,65.381c-4.066,1.512-7.744,4.018-10.693,7.34c-4.752,5.35-7.236,12.275-7,19.513l0.001,0.102
	c-0.007,0.287-0.008,0.572,0.003,0.841c0.479,13.287,9.883,24.018,22.202,26.253c1.831,4.156,4.706,10.379,7.779,15.846
	c-27.342,18.267-44.008,48.368-44.008,80.387v9.141l39.586,11.529C124.792,236.705,124.816,237.076,124.841,237.447z"/>
<path fill="#FFFFFF" d="M187.065,279.945c-5.589,0-10.064,1.834-13.855,5.729v-18.611h-9.227v61.404h9.227v-27.346
	c0-7.174,5.371-12.586,12.494-12.586c6.875,0,11.494,5.021,11.494,12.494v27.438h9.227v-27.619
	C206.424,286.486,196.389,279.945,187.065,279.945z"/>
<path fill="#FFFFFF" d="M305.372,285.846c-3.775-3.875-8.906-5.9-15.035-5.9c-13.428,0-23.174,10.355-23.174,24.625
	c0,14.268,9.746,24.623,23.174,24.623c6.152,0,11.283-1.998,15.035-5.82v5.094h9.227v-47.795h-9.227V285.846z M291.245,320.604
	c-8.746,0-14.854-6.594-14.854-16.033c0-9.441,6.107-16.035,14.854-16.035c10.01,0,14.488,8.055,14.488,16.035
	S301.254,320.604,291.245,320.604z"/>
<path fill="#FFFFFF" d="M359.911,267.062v18.783c-3.775-3.875-8.904-5.9-15.035-5.9c-13.428,0-23.172,10.355-23.172,24.625
	c0,14.268,9.744,24.623,23.172,24.623c6.154,0,11.285-1.998,15.035-5.82v5.094h9.229v-61.404H359.911z M345.786,320.604
	c-8.746,0-14.855-6.594-14.855-16.033c0-9.441,6.109-16.035,14.855-16.035c10.01,0,14.488,8.055,14.488,16.035
	S355.795,320.604,345.786,320.604z"/>
<path fill="#FFFFFF" d="M237.34,279.945c-13.965,0-23.719,10.125-23.719,24.625c0,14.268,10.166,24.623,24.172,24.623
	c10.418,0,18.168-5.172,21.82-14.566l0.02-0.051h-10.225c-1.883,2.943-5.33,6.027-11.525,6.027c-7.441,0-13.176-4.807-14.643-12.102
	h21.756h16.061v-3.932C261.057,290.07,251.303,279.945,237.34,279.945z M223.389,299.73c1.678-6.945,6.914-11.195,13.951-11.195
	c7.035,0,12.271,4.25,13.949,11.195H223.389z"/>
<path fill="#FFFFFF" d="M23.719,279.945C9.754,279.945,0,290.07,0,304.57c0,14.268,10.166,24.623,24.172,24.623
	c10.418,0,18.168-5.172,21.82-14.566l0.02-0.051H35.787c-1.883,2.943-5.33,6.027-11.525,6.027c-7.441,0-13.176-4.807-14.643-12.102
	h21.756h16.061v-3.932C47.436,290.07,37.682,279.945,23.719,279.945z M9.768,299.73c1.678-6.945,6.914-11.195,13.951-11.195
	c7.035,0,12.271,4.25,13.949,11.195H9.768z"/>
<path fill="#FFFFFF" d="M91.659,285.766c-3.75-3.822-8.883-5.82-15.034-5.82c-13.428,0-23.174,10.203-23.174,24.262
	s9.746,24.26,23.174,24.26c6.128,0,11.261-2.025,15.034-5.898v2.875c0,8.957-4.373,13.129-13.765,13.129
	c-5.713,0-9.832-1.938-11.726-5.479h-10.2c2.887,8.943,11.01,14.07,22.289,14.07c14.38,0,22.628-7.752,22.628-21.268v-45.225h-9.227
	V285.766z M77.532,319.877c-8.885,0-14.854-6.299-14.854-15.67c0-9.373,5.969-15.672,14.854-15.672
	c10.01,0,14.49,7.871,14.49,15.672C92.022,312.006,87.542,319.877,77.532,319.877z"/>
<path fill="#FFFFFF" d="M145.292,285.766c-3.75-3.822-8.883-5.82-15.035-5.82c-13.428,0-23.174,10.203-23.174,24.262
	s9.746,24.26,23.174,24.26c6.129,0,11.26-2.025,15.035-5.898v2.875c0,8.957-4.374,13.129-13.766,13.129
	c-5.713,0-9.832-1.938-11.726-5.479h-10.2c2.887,8.943,11.01,14.07,22.289,14.07c14.381,0,22.629-7.752,22.629-21.268v-45.225
	h-9.227V285.766z M131.164,319.877c-8.885,0-14.854-6.299-14.854-15.67c0-9.373,5.969-15.672,14.854-15.672
	c10.01,0,14.49,7.871,14.49,15.672C145.654,312.006,141.174,319.877,131.164,319.877z"/>
<path fill="none" d="M122.827,219.147l0.792,0.23c-0.005-0.08-0.011-0.16-0.016-0.24L122.827,219.147z"/>
<path fill="#FFEEDE" d="M244.841,109.413c0.024,0,0.047-0.004,0.07-0.005l-0.005-0.231
	C244.885,109.256,244.863,109.334,244.841,109.413z"/>
<path fill="#FFEEDE" d="M109.976,181.003c-4.991,9.879-7.908,20.728-8.364,31.966l21.215,6.179l0.776-0.01
	c-0.659-9.968-1.318-19.937-1.979-29.905L109.976,181.003z"/>
<path fill="#FFEEDE" d="M261.502,183.652l-10.899,7.7c-0.419,6.331-0.837,12.664-1.256,18.995c-0.134,2.021-0.267,4.04-0.401,6.061
	l18.585-5.604C267.161,201.33,265.087,192.176,261.502,183.652z"/>
<path fill="#FFEEDE" d="M252.089,96.896c1.864-2.034,2.903-4.681,2.983-7.502c0.006-0.205,0.02-0.409,0.015-0.615
	c-0.064-3.049-1.254-5.885-3.344-7.98c-0.281-0.282-0.577-0.542-0.881-0.788c-0.948-0.766-2.003-1.343-3.118-1.729
	c0.015,0.201,0.023,0.403,0.037,0.604c0.006,0.085,0.011,0.17,0.016,0.256c0.132,2.028,0.218,4.072,0.218,6.141
	c0,5.041-0.408,9.966-1.166,14.739C248.831,99.548,250.643,98.479,252.089,96.896z"/>
<path fill="#FFEEDE" d="M123.085,81.819c0.003-0.073,0.002-0.147,0.005-0.22c0.008-0.209,0.018-0.417,0.027-0.625
	c-1.198,0.375-2.32,0.969-3.324,1.77c-0.479,0.382-0.935,0.801-1.354,1.273c-1.965,2.213-2.986,5.111-2.875,8.16
	c0.001,0.029,0.006,0.058,0.007,0.087c0.238,5.505,4.158,9.944,9.129,10.696c-1.092-5.68-1.688-11.593-1.688-17.677
	C123.014,84.12,123.044,82.968,123.085,81.819z"/>
<path fill="#FFEEDE" d="M185.515,16.793c-29.849,0-54.134,30.723-54.134,68.488c0,20.854,7.415,39.547,19.073,52.12
	c2.298,2.478,4.756,4.722,7.361,6.693c0.02,0.015,0.041,0.029,0.06,0.044c1.062,0.801,2.15,1.551,3.257,2.261
	c-0.359-0.738-0.682-1.494-0.968-2.268c-0.658-1.78-1.116-3.646-1.35-5.577c-0.118-0.976-0.185-1.967-0.185-2.972
	c0-4.404,1.168-8.554,3.221-12.193c0.823-1.46,1.79-2.836,2.881-4.113c2.816-3.296,6.461-5.934,10.638-7.619
	c3.307-1.334,6.943-2.075,10.76-2.075c5.344,0,10.333,1.454,14.559,3.958c3.128,1.853,5.833,4.284,7.951,7.134
	c0.35,0.471,0.69,0.95,1.008,1.444c2.526,3.93,3.982,8.54,3.982,13.465c0,2.043-0.259,4.028-0.731,5.937
	c-0.207,0.833-0.456,1.651-0.746,2.452c-0.153,0.424-0.317,0.843-0.492,1.257c0.523-0.367,1.042-0.745,1.555-1.133
	c0.058-0.044,0.118-0.084,0.176-0.128c2.54-1.938,4.938-4.142,7.186-6.565c11.658-12.572,19.072-31.267,19.072-52.121
	C239.648,47.516,215.365,16.793,185.515,16.793z M147.952,71.809l-0.598-8.348l26.749-1.916l0.598,8.348L147.952,71.809z
	 M166.253,90.721c0,3.002-2.343,5.438-5.228,5.438s-5.225-2.436-5.225-5.438c0-1.18,0.364-2.268,0.976-3.159
	c0.948-1.379,2.496-2.281,4.249-2.281s3.302,0.901,4.25,2.281C165.889,88.453,166.253,89.541,166.253,90.721z M194.019,96.711v7.531
	h-17.01v-7.531v-0.836h17.01V96.711z M203.304,86.705c0.833-1.852,2.635-3.137,4.729-3.137c2.096,0,3.896,1.285,4.729,3.137
	c0.314,0.7,0.495,1.477,0.495,2.301c0,3.004-2.338,5.439-5.225,5.439c-2.885,0-5.225-2.436-5.225-5.439
	C202.808,88.182,202.989,87.405,203.304,86.705z M223.037,72.777l-26.74-2.051l0.641-8.344l26.738,2.051L223.037,72.777z"/>
<path fill="#FFEEDE" d="M199.737,122.714c-0.287-0.259-0.587-0.506-0.892-0.749c-3.418-2.724-7.856-4.383-12.716-4.383
	c-3.732,0-7.21,0.99-10.177,2.675c-1.505,0.855-2.874,1.89-4.073,3.078c-2.027,2.009-3.569,4.435-4.437,7.134
	c-0.522,1.623-0.813,3.336-0.813,5.113c0,3.082,0.846,5.983,2.33,8.521c3.297,5.638,9.756,9.479,17.17,9.479
	c7.459,0,13.946-3.89,17.225-9.584c1.447-2.514,2.275-5.376,2.275-8.416c0-2.065-0.397-4.041-1.094-5.89
	C203.532,127.028,201.879,124.645,199.737,122.714z M175.306,125.664c0-0.014-0.002-0.027-0.002-0.041h20.41h1.346
	c0,5.044-3.437,9.273-8.094,10.504c-0.89,0.235-1.819,0.373-2.783,0.373c-0.764,0-1.509-0.081-2.229-0.23
	C179.03,135.244,175.326,130.889,175.306,125.664z"/>
<path fill="#B0ACB0" d="M127.893,174.58c0.019,0.279,0.037,0.559,0.056,0.838c0.186,2.812,0.371,5.622,0.558,8.434
	c0.131,1.978,0.261,3.955,0.393,5.934c0.019,0.293,0.039,0.586,0.058,0.879c0.086,1.311,0.173,2.622,0.26,3.933
	c0.54,8.149,1.079,16.301,1.617,24.45c0.055,0.826,0.109,1.653,0.164,2.48c0.196,2.961,0.392,5.924,0.588,8.886
	c0.135,2.051,0.271,4.101,0.407,6.151l0.652,9.861h107.073c0.415-6.29,0.832-12.582,1.249-18.873
	c0.197-2.973,0.394-5.944,0.59-8.917c0.022-0.327,0.044-0.655,0.065-0.982c0.19-2.872,0.38-5.744,0.57-8.616
	c0.271-4.105,0.544-8.213,0.815-12.318c0.129-1.945,0.258-3.891,0.387-5.836c0.02-0.292,0.038-0.585,0.058-0.877
	c0.089-1.345,0.179-2.688,0.268-4.033c0.232-3.519,0.466-7.036,0.698-10.555c0.019-0.279,0.037-0.559,0.056-0.838H127.893z
	 M176.091,190.889c10.143,6.176,20.23,12.447,30.254,18.799c-0.242,0.126-0.483,0.254-0.727,0.38
	c-5.245,2.727-10.481,5.473-15.708,8.236c-3.93,2.077-7.853,4.167-11.768,6.27c-0.225,0.12-0.451,0.239-0.676,0.36
	c-0.331,0.178-0.664,0.352-0.994,0.529c-0.004-0.414-0.009-0.828-0.014-1.242c-0.003-0.281-0.006-0.562-0.009-0.844
	c-0.018-1.635-0.037-3.27-0.054-4.903c-0.096-8.913-0.192-17.827-0.294-26.741C176.097,191.451,176.095,191.17,176.091,190.889z"/>
<path fill="#FFFFFF" d="M226.091,144.145l0.087-0.15l0.634-1.096c-0.319,0.347-0.642,0.691-0.967,1.03
	c-10.894,11.346-24.969,18.208-40.33,18.208c-14.999,0-28.776-6.534-39.56-17.403c-13.308,7.043-24.161,17.103-31.806,28.975
	l6.764,4.778c0.131,1.978,0.262,3.956,0.393,5.934c0.02,0.293,0.039,0.586,0.058,0.879c0.087,1.311,0.174,2.622,0.26,3.933
	c0.66,9.969,1.32,19.938,1.979,29.905c0.005,0.08,0.011,0.16,0.016,0.24c0.196,2.962,0.392,5.924,0.588,8.886
	c0.212,3.203,0.424,6.406,0.636,9.609l1.094,16.561h120.493l0.223-3.348c0.565-8.587,1.136-17.174,1.704-25.761
	c0.172-2.587,0.342-5.175,0.514-7.763c0.025-0.385,0.051-0.77,0.076-1.154c0.135-2.021,0.268-4.04,0.401-6.061
	c0.419-6.331,0.837-12.664,1.256-18.995c0.129-1.944,0.258-3.89,0.386-5.835c0.02-0.292,0.039-0.585,0.059-0.877
	c0.089-1.345,0.178-2.688,0.267-4.033l6.478-4.576C250.653,163.147,239.842,152.097,226.091,144.145z M244.418,175.418
	c-0.232,3.519-0.466,7.036-0.698,10.555c-0.089,1.345-0.179,2.688-0.268,4.033c-0.02,0.292-0.038,0.585-0.058,0.877
	c-0.129,1.945-0.258,3.891-0.387,5.836c-0.271,4.105-0.544,8.213-0.815,12.318c-0.19,2.872-0.38,5.744-0.57,8.616
	c-0.021,0.327-0.043,0.655-0.065,0.982c-0.196,2.973-0.393,5.944-0.59,8.917c-0.417,6.291-0.834,12.583-1.249,18.873H132.645
	l-0.652-9.861c-0.136-2.051-0.271-4.101-0.407-6.151c-0.196-2.962-0.392-5.925-0.588-8.886c-0.055-0.827-0.109-1.654-0.164-2.48
	c-0.539-8.149-1.078-16.301-1.617-24.45c-0.086-1.311-0.173-2.622-0.26-3.933c-0.02-0.293-0.039-0.586-0.058-0.879
	c-0.131-1.979-0.262-3.956-0.393-5.934c-0.187-2.812-0.372-5.622-0.558-8.434c-0.019-0.279-0.037-0.559-0.056-0.838h116.581
	C244.456,174.859,244.437,175.139,244.418,175.418z"/>
<path fill="#FFFFFF" d="M176.101,191.732c0.103,8.914,0.199,17.828,0.294,26.741c0.018,1.634,0.037,3.269,0.054,4.903
	c0.003,0.281,0.006,0.562,0.009,0.844c0.004,0.414,0.009,0.828,0.014,1.242c0.331-0.178,0.664-0.352,0.994-0.529
	c0.225-0.121,0.451-0.24,0.676-0.36c3.916-2.103,7.838-4.192,11.768-6.27c5.227-2.764,10.463-5.51,15.708-8.236
	c0.243-0.126,0.484-0.254,0.727-0.38c-10.023-6.352-20.111-12.623-30.254-18.799C176.095,191.17,176.097,191.451,176.101,191.732z"
	/>
<polygon points="194.019,96.711 194.019,95.875 177.009,95.875 177.009,96.711 177.009,104.242 194.019,104.242 "/>
<path d="M161.026,85.281c-1.753,0-3.301,0.901-4.249,2.281c-0.612,0.891-0.976,1.979-0.976,3.159c0,3.002,2.34,5.438,5.225,5.438
	s5.228-2.436,5.228-5.438c0-1.18-0.364-2.268-0.977-3.159C164.328,86.183,162.779,85.281,161.026,85.281z"/>
<path d="M208.033,83.568c-2.094,0-3.896,1.285-4.729,3.137c-0.315,0.7-0.496,1.477-0.496,2.301c0,3.004,2.34,5.439,5.225,5.439
	c2.887,0,5.225-2.436,5.225-5.439c0-0.824-0.181-1.601-0.495-2.301C211.929,84.854,210.128,83.568,208.033,83.568z"/>
<rect x="147.619" y="62.492" transform="matrix(-0.9974 0.0714 -0.0714 -0.9974 326.407 121.6783)" width="26.818" height="8.369"/>
<rect x="196.577" y="63.396" transform="matrix(0.9971 0.0765 -0.0765 0.9971 5.783 -15.8605)" width="26.817" height="8.368"/>
<path d="M183.955,136.27c0.72,0.15,1.464,0.23,2.229,0.23c0.964,0,1.894-0.138,2.783-0.373c4.657-1.231,8.094-5.46,8.094-10.504
	h-1.346h-20.41c0,0.014,0.002,0.027,0.002,0.041C175.326,130.889,179.03,135.244,183.955,136.27z"/>
<path d="M123.619,219.378l-0.792-0.23l-21.215-6.179c0.456-11.238,3.373-22.087,8.364-31.966l11.648,8.229
	c-0.086-1.311-0.173-2.622-0.26-3.933c-0.019-0.293-0.039-0.586-0.058-0.879c-0.131-1.979-0.261-3.956-0.393-5.934l-6.764-4.778
	c7.646-11.873,18.499-21.932,31.806-28.975c10.783,10.869,24.561,17.403,39.56,17.403c15.361,0,29.437-6.862,40.33-18.208
	c0.325-0.339,0.647-0.683,0.967-1.03l-0.634,1.096l-0.087,0.15c13.751,7.953,24.562,19.003,31.7,31.887l-6.478,4.576
	c-0.089,1.345-0.178,2.688-0.267,4.033c-0.02,0.292-0.039,0.585-0.059,0.877c-0.128,1.945-0.257,3.891-0.386,5.835l10.899-7.7
	c3.585,8.523,5.658,17.678,6.028,27.152l-18.585,5.604c-0.025,0.385-0.051,0.77-0.076,1.154c-0.172,2.588-0.342,5.176-0.514,7.763
	l27.603-8.321v-3.107c0-31.289-16.674-59.748-44.653-76.38c6.027-7.983,10.687-17.538,13.536-28.104
	c0.021-0.079,0.044-0.157,0.065-0.236l0.005,0.231l0.002,0.088c5.102-0.111,9.842-2.281,13.352-6.115
	c3.457-3.779,5.301-8.73,5.188-13.943c-0.002-0.075-0.013-0.148-0.016-0.224c0.002-0.205,0.021-0.407,0.016-0.612
	c-0.113-5.215-2.168-10.084-5.783-13.713c-3.036-3.041-6.856-4.89-10.984-5.384c-5.934-34.836-31.104-61.08-61.17-61.08
	c-30.859,0-56.549,27.649-61.588,63.855c-4.512,0.534-8.637,2.683-11.743,6.178c-3.402,3.83-5.172,8.811-4.982,14.02
	c0.001,0.031,0.006,0.061,0.008,0.092c0,0.249-0.017,0.495-0.008,0.744c0.385,10.6,8.84,18.971,18.994,18.971
	c0.223,0,0.447-0.006,0.67-0.014l-0.017-0.481c2.986,9.961,7.616,18.945,13.466,26.487c-29.135,16.18-47.132,45.769-47.132,77.812
	v3.139l31.024,9.035C124.011,225.302,123.814,222.34,123.619,219.378z M185.515,16.793c29.85,0,54.133,30.723,54.133,68.488
	c0,20.854-7.414,39.548-19.072,52.121c-2.247,2.423-4.646,4.626-7.186,6.565c-0.058,0.044-0.118,0.084-0.176,0.128
	c-0.513,0.388-1.031,0.766-1.555,1.133c0.175-0.414,0.339-0.833,0.492-1.257c0.29-0.801,0.539-1.619,0.746-2.452
	c0.473-1.908,0.731-3.894,0.731-5.937c0-4.925-1.456-9.535-3.982-13.465c-0.317-0.494-0.658-0.973-1.008-1.444
	c-2.118-2.85-4.823-5.281-7.951-7.134c-4.226-2.504-9.215-3.958-14.559-3.958c-3.816,0-7.453,0.74-10.76,2.075
	c-4.176,1.685-7.822,4.322-10.638,7.619c-1.091,1.277-2.058,2.653-2.881,4.113c-2.053,3.639-3.221,7.789-3.221,12.193
	c0,1.005,0.067,1.996,0.185,2.972c0.234,1.931,0.692,3.797,1.35,5.577c0.286,0.773,0.609,1.529,0.968,2.268
	c-1.107-0.71-2.195-1.459-3.257-2.261c-0.02-0.015-0.041-0.029-0.06-0.044c-2.604-1.971-5.063-4.215-7.361-6.693
	c-11.658-12.572-19.073-31.266-19.073-52.12C131.381,47.516,155.667,16.793,185.515,16.793z M166.629,135.582
	c0-1.777,0.291-3.491,0.813-5.113c0.868-2.699,2.41-5.125,4.437-7.134c1.199-1.188,2.567-2.223,4.073-3.078
	c2.967-1.685,6.445-2.675,10.177-2.675c4.859,0,9.298,1.66,12.716,4.383c0.305,0.243,0.604,0.489,0.892,0.749
	c2.143,1.931,3.795,4.314,4.799,6.979c0.696,1.849,1.094,3.825,1.094,5.89c0,3.04-0.828,5.902-2.275,8.416
	c-3.278,5.694-9.766,9.584-17.225,9.584c-7.414,0-13.873-3.841-17.17-9.479C167.475,141.565,166.629,138.664,166.629,135.582z
	 M247.782,78.885c-0.014-0.201-0.022-0.403-0.037-0.604c1.115,0.387,2.17,0.964,3.118,1.729c0.304,0.246,0.6,0.506,0.881,0.788
	c2.09,2.096,3.279,4.932,3.344,7.98c0.005,0.207-0.009,0.41-0.015,0.615c-0.08,2.821-1.119,5.468-2.983,7.502
	c-1.446,1.583-3.259,2.652-5.24,3.124c0.758-4.773,1.166-9.698,1.166-14.739c0-2.069-0.086-4.113-0.218-6.141
	C247.792,79.055,247.788,78.97,247.782,78.885z M115.572,92.263c-0.001-0.029-0.006-0.058-0.007-0.087
	c-0.111-3.049,0.91-5.947,2.875-8.16c0.419-0.472,0.875-0.891,1.354-1.273c1.003-0.801,2.126-1.395,3.324-1.77
	c-0.009,0.208-0.02,0.417-0.027,0.625c-0.003,0.073-0.002,0.147-0.005,0.22c-0.042,1.149-0.071,2.301-0.071,3.462
	c0,6.084,0.596,11.998,1.688,17.677C119.73,102.207,115.811,97.768,115.572,92.263z"/>
</svg>
