<svg xmlns="http://www.w3.org/2000/svg" xmlns:xlink="http://www.w3.org/1999/xlink" width="571" height="207" viewBox="0 0 571 207">
  <defs>
    <path id="group-11-a" d="M74,186.121818 C112.913372,174.411347 136.475048,159.769876 144.685029,142.197403 C157,115.838695 214.5,107.056675 236,112.573695 C257.5,118.090715 254.066807,156.992419 283.783404,167.557119 C303.594468,174.600252 320.742969,182.621818 335.228906,191.621818"/>
    <path id="group-11-b" d="M0,206.95899 C65.4809555,189.880633 111.421512,176.7254 137.82167,167.49329 C160.517193,159.556688 183.321162,164.053341 199.660581,143.000679 C216,121.948016 247.5,122.618136 262,108.131727 C279.983429,90.1651523 290,78.4072033 317.544786,75.037098 C380.711318,67.308671 371.5,44.207423 393.5,39.2291487"/>
    <path id="group-11-c" d="M27,183.5 C37.3333333,176.690477 53.5,162.517888 75.5,140.982234 C108.5,108.678754 134.794242,73.3875942 162.5,90.3607652 C190.205758,107.333936 206.860105,94.8956561 252.5,82.1204838 C298.139895,69.3453115 351.5,89.0948921 370,116.038563 C388.5,142.982234 429.278047,145.883858 476.288423,131.202051"/>
  </defs>
  <g fill="none" fill-rule="evenodd" transform="translate(5 -5)">
    <g stroke-linecap="square">
      <use stroke="#000" stroke-width="7" xlink:href="#group-11-a"/>
      <use stroke="#FFF" stroke-width="3" xlink:href="#group-11-a"/>
    </g>
    <g stroke="#000" stroke-width="2" transform="rotate(-58 207.745 -242.726)">
      <path fill="#FFF" d="M4,20.0984989 C4,20.0984989 14.0004,-10.6515011 42,4.0984989 C42,4.0984989 39.1685538,18.7393815 29.4094,22.8484989 C20.1835463,26.7330689 4,20.0984989 4,20.0984989 Z"/>
      <path d="M42,4.0984989 C24.3937333,13.1784989 10.3937333,18.8451656 0,21.0984989"/>
      <polyline points="25.909 0 25.182 12.289 35.851 18.276"/>
      <polyline points="14.909 4.848 13.396 16.911 24 24.068"/>
    </g>
    <g stroke="#000" stroke-width="2" transform="rotate(-129 126.891 34.505)">
      <path fill="#FFF" d="M4,20.0984989 C4,20.0984989 14.0004,-10.6515011 42,4.0984989 C42,4.0984989 39.1685538,18.7393815 29.4094,22.8484989 C20.1835463,26.7330689 4,20.0984989 4,20.0984989 Z"/>
      <path d="M42,4.0984989 C24.3937333,13.1784989 10.3937333,18.8451656 0,21.0984989"/>
      <polyline points="25.909 0 25.182 12.289 35.851 18.276"/>
      <polyline points="14.909 4.848 13.396 16.911 24 24.068"/>
    </g>
    <g stroke="#000" stroke-width="2" transform="scale(1 -1) rotate(51 196.48 138.452)">
      <path fill="#FFF" d="M4,20.0984989 C4,20.0984989 14.0004,-10.6515011 42,4.0984989 C42,4.0984989 39.1685538,18.7393815 29.4094,22.8484989 C20.1835463,26.7330689 4,20.0984989 4,20.0984989 Z"/>
      <path d="M42,4.0984989 C24.3937333,13.1784989 10.3937333,18.8451656 0,21.0984989"/>
      <polyline points="25.909 0 25.182 12.289 35.851 18.276"/>
      <polyline points="14.909 4.848 13.396 16.911 24 24.068"/>
    </g>
    <g stroke="#000" stroke-width="2" transform="rotate(19 -318.964 314.886)">
      <path fill="#FFF" d="M4,20.0984989 C4,20.0984989 14.0004,-10.6515011 42,4.0984989 C42,4.0984989 39.1685538,18.7393815 29.4094,22.8484989 C20.1835463,26.7330689 4,20.0984989 4,20.0984989 Z"/>
      <path d="M42,4.0984989 C24.3937333,13.1784989 10.3937333,18.8451656 0,21.0984989"/>
      <polyline points="25.909 0 25.182 12.289 35.851 18.276"/>
      <polyline points="14.909 4.848 13.396 16.911 24 24.068"/>
    </g>
    <g stroke="#000" stroke-width="2" transform="scale(1 -1) rotate(51 315.398 336.51)">
      <path fill="#FFF" d="M4,20.0984989 C4,20.0984989 14.0004,-10.6515011 42,4.0984989 C42,4.0984989 39.1685538,18.7393815 29.4094,22.8484989 C20.1835463,26.7330689 4,20.0984989 4,20.0984989 Z"/>
      <path d="M42,4.0984989 C24.3937333,13.1784989 10.3937333,18.8451656 0,21.0984989"/>
      <polyline points="25.909 0 25.182 12.289 35.851 18.276"/>
      <polyline points="14.909 4.848 13.396 16.911 24 24.068"/>
    </g>
    <g stroke-linecap="square">
      <use stroke="#000" stroke-width="7" xlink:href="#group-11-b"/>
      <use stroke="#FFF" stroke-width="3" xlink:href="#group-11-b"/>
    </g>
    <g stroke="#000" stroke-width="2" transform="rotate(75 238.866 311.916)">
      <path fill="#FFF" d="M8,69 L21,69 L21,86.5 C21,90.0898509 18.0898509,93 14.5,93 C10.9101491,93 8,90.0898509 8,86.5 L8,69 L8,69 Z"/>
      <path d="M8 74.5C12.290125 75.3654158 16.709875 75.3654158 21 74.5L21 74.5 21 74.5M8 78C12.2409833 79.2652012 16.7590167 79.2652012 21 78L21 78 21 78M8 82.0255496C12.2409833 83.2907507 16.7590167 83.2907507 21 82.0255496L21 82.0255496 21 82.0255496M8 86.0255496C12.2409833 87.2907507 16.7590167 87.2907507 21 86.0255496L21 86.0255496 21 86.0255496"/>
      <path fill="#FFF" d="M0,29 L29,29 L29,56.5 C29,64.5081289 22.5081289,71 14.5,71 C6.49187113,71 9.80712939e-16,64.5081289 0,56.5 L0,29 L0,29 Z"/>
      <ellipse cx="14.5" cy="29" fill="#FFF" rx="14.5" ry="5"/>
      <polyline fill="#FFF" points="4 29 4 11 4 11 25 11 25 29"/>
      <ellipse cx="14.5" cy="10" fill="#FFF" rx="10.5" ry="3"/>
      <path fill="#FFF" d="M14.5 0C15.6045695-2.02906125e-16 16.5.8954305 16.5 2L16.5 12 16.5 12 12.5 12 12.5 2C12.5.8954305 13.3954305 2.02906125e-16 14.5 0zM4 29C4 30.1045695 8.70101013 31 14.5 31L14.5 31C20.2989899 31 25 30.1045695 25 29"/>
    </g>
    <g stroke="#000" stroke-width="2" transform="rotate(44 26.011 393.814)">
      <path fill="#FFF" d="M4,20.0984989 C4,20.0984989 14.0004,-10.6515011 42,4.0984989 C42,4.0984989 39.1685538,18.7393815 29.4094,22.8484989 C20.1835463,26.7330689 4,20.0984989 4,20.0984989 Z"/>
      <path d="M42,4.0984989 C24.3937333,13.1784989 10.3937333,18.8451656 0,21.0984989"/>
      <polyline points="25.909 0 25.182 12.289 35.851 18.276"/>
      <polyline points="14.909 4.848 13.396 16.911 24 24.068"/>
    </g>
    <g stroke-linecap="square">
      <use stroke="#000" stroke-width="7" xlink:href="#group-11-c"/>
      <use stroke="#FFF" stroke-width="3" xlink:href="#group-11-c"/>
    </g>
    <g stroke="#000" stroke-width="2" transform="rotate(73 218.743 423.618)">
      <path fill="#FFF" d="M8,69 L21,69 L21,86.5 C21,90.0898509 18.0898509,93 14.5,93 C10.9101491,93 8,90.0898509 8,86.5 L8,69 L8,69 Z"/>
      <path d="M8 74.5C12.290125 75.3654158 16.709875 75.3654158 21 74.5L21 74.5 21 74.5M8 78C12.2409833 79.2652012 16.7590167 79.2652012 21 78L21 78 21 78M8 82.0255496C12.2409833 83.2907507 16.7590167 83.2907507 21 82.0255496L21 82.0255496 21 82.0255496M8 86.0255496C12.2409833 87.2907507 16.7590167 87.2907507 21 86.0255496L21 86.0255496 21 86.0255496"/>
      <path fill="#FFF" d="M0,29 L29,29 L29,56.5 C29,64.5081289 22.5081289,71 14.5,71 C6.49187113,71 9.80712939e-16,64.5081289 0,56.5 L0,29 L0,29 Z"/>
      <ellipse cx="14.5" cy="29" fill="#FFF" rx="14.5" ry="5"/>
      <polyline fill="#FFF" points="4 29 4 11 4 11 25 11 25 29"/>
      <ellipse cx="14.5" cy="10" fill="#FFF" rx="10.5" ry="3"/>
      <path fill="#FFF" d="M14.5 0C15.6045695-2.02906125e-16 16.5.8954305 16.5 2L16.5 12 16.5 12 12.5 12 12.5 2C12.5.8954305 13.3954305 2.02906125e-16 14.5 0zM4 29C4 30.1045695 8.70101013 31 14.5 31L14.5 31C20.2989899 31 25 30.1045695 25 29"/>
    </g>
  </g>
</svg>
