<svg xmlns="http://www.w3.org/2000/svg" width="121" height="97" viewBox="0 0 121 97">
  <g fill="none" fill-rule="evenodd" transform="translate(1 1)">
    <rect width="85" height="62" fill="#FFF" stroke="#000" stroke-width="2"/>
    <g fill="#000" transform="translate(6 35)">
      <rect width="43" height="3" y="17"/>
      <rect width="23" height="3" y="11"/>
      <rect width="35" height="3" y="5"/>
      <rect width="10" height="3"/>
    </g>
    <circle cx="6" cy="6" r="2" fill="#000"/>
    <circle cx="12" cy="6" r="2" fill="#000"/>
    <circle cx="18" cy="6" r="2" fill="#000"/>
    <g transform="translate(50 2)">
      <path fill="#FFF" stroke="#000" stroke-width="2" d="M61.8696057,15.8683266 C64.3205064,15.499967 67.1844678,18.0627914 66.5848835,23.1377577 C66.1851607,26.5210685 64.9608179,28.6082058 62.9118551,29.3991697 L60.9629359,29.8335034 C59.4776946,26.7704278 58.7130861,24.3255222 58.6691103,22.4987865 C58.6031466,19.7586829 59.418705,16.2366862 61.8696057,15.8683266 Z" transform="rotate(137 62.665 22.834)"/>
      <path fill="#FFF" stroke="#000" stroke-width="2" d="M10.0051986,11.7687064 C13.0688244,11.2951011 16.6487761,14.5901611 15.8992958,21.1151177 C15.3996423,25.4650888 13.8692138,28.1485511 11.3080103,29.1655045 L8.87186126,29.7239336 C7.01530969,25.7856936 6.05954904,22.6422435 6.00457931,20.2935833 C5.92212472,16.770593 6.94157272,12.2423116 10.0051986,11.7687064 Z" transform="rotate(-48 11 20.724)"/>
      <path fill="#FFF" stroke="#000" stroke-width="2" d="M50.2242662,1.06871033 C54.888278,0.341894144 60.3383354,5.39864345 59.1973394,15.4121394 C58.4366754,22.0878033 56.1067771,26.2059669 52.2076446,27.76663 L48.4988928,28.6236207 C45.6725103,22.579818 44.2174765,17.7557362 44.1337916,14.1513752 C44.0082641,8.74483362 45.5602544,1.79552653 50.2242662,1.06871033 Z" transform="rotate(51 51.739 14.812)"/>
      <path fill="#FFF" stroke="#000" stroke-width="2" d="M30.4660435,9.986034 C40.6154576,9.986034 44.9660435,22.8335034 44.9660435,32.908144 C44.9660435,39.6245711 42.6327102,46.6505344 37.9660435,53.986034 L22.9660435,53.986034 C18.2993769,46.3193673 15.9660435,39.293404 15.9660435,32.908144 C15.9660435,23.330254 20.3166295,9.986034 30.4660435,9.986034 Z"/>
      <circle cx="37" cy="30" r="1" fill="#000"/>
      <circle cx="39" cy="24" r="1" fill="#000"/>
      <circle cx="26" cy="22" r="1" fill="#000"/>
      <circle cx="33" cy="50" r="1" fill="#000"/>
      <circle cx="30" cy="28" r="1" fill="#000"/>
      <circle cx="33" cy="22" r="1" fill="#000"/>
      <circle cx="29" cy="16" r="1" fill="#000"/>
      <circle cx="37" cy="19" r="1" fill="#000"/>
      <circle cx="31" cy="35" r="1" fill="#000"/>
      <circle cx="40" cy="38" r="1" fill="#000"/>
      <circle cx="49" cy="19" r="1" fill="#000"/>
      <circle cx="49" cy="13" r="1" fill="#000"/>
      <circle cx="56" cy="14" r="1" fill="#000"/>
      <circle cx="46" cy="31" r="1" fill="#000"/>
      <circle cx="67" cy="20" r="1" fill="#000"/>
      <circle cx="8" cy="26" r="1" fill="#000"/>
      <circle cx="11" cy="13" r="1" fill="#000"/>
      <circle cx="55" cy="3" r="1" fill="#000"/>
      <circle cx="16" cy="40" r="1" fill="#000"/>
      <circle cx="24" cy="11" r="1" fill="#000"/>
      <circle cx="57" cy="9" r="1" fill="#000"/>
      <circle cx="12" cy="22" r="1" fill="#000"/>
      <circle cx="9" cy="18" r="1" fill="#000"/>
      <circle cx="23" cy="31" r="1" fill="#000"/>
      <circle cx="21" cy="24" r="1" fill="#000"/>
      <circle cx="25" cy="40" r="1" fill="#000"/>
      <circle cx="20" cy="36" r="1" fill="#000"/>
      <circle cx="33" cy="43" r="1" fill="#000"/>
      <circle cx="25" cy="48" r="1" fill="#000"/>
      <polygon fill="#FFF" stroke="#000" stroke-width="2" points="13.966 53.986 47.966 53.986 46.966 63.986 14.966 63.986"/>
      <path fill="#FFF" stroke="#000" stroke-width="2" d="M16.9660435,63.986034 L44.9660435,63.986034 L42.0486974,90.2421495 C41.999594,90.6840139 41.6646718,91.0404059 41.2267047,91.1168265 C36.7349175,91.9005958 33.326016,92.2924805 31,92.2924805 C28.6730486,92.2924805 25.2419529,91.9002806 20.7067128,91.1158808 C20.2680862,91.0400173 19.9324129,90.6833581 19.8832555,90.2409419 L16.9660435,63.986034 L16.9660435,63.986034 Z"/>
    </g>
  </g>
</svg>
