<svg xmlns="http://www.w3.org/2000/svg" width="83" height="90" viewBox="0 0 83 90">
  <g fill="none" fill-rule="evenodd" transform="rotate(30 63.704 88.466)">
    <path fill="#FFF" stroke="#000" stroke-width="2" d="M4,37 L12.2119801,37 C12.7183816,37 13.2059296,37.1920988 13.5762287,37.5375275 L17.1204936,40.8437491 C17.6814266,41.3670082 18.4922236,41.5233293 19.2074864,41.2461199 L22.6014087,39.9307611 C23.2590208,39.675895 24.0022565,39.7862299 24.5574695,40.2211425 L28.7497272,43.5050454 C28.7915591,43.5378133 28.8346803,43.5689012 28.8789882,43.5982348 L34.1040555,47.0574494 C34.6635362,47.4278492 35,48.0541206 35,48.7251009 L35,103 C35,104.104569 34.1045695,105 33,105 L4,105 C2.8954305,105 2,104.104569 2,103 L2,39 C2,37.8954305 2.8954305,37 4,37 Z"/>
    <polygon fill="#000" points="30.562 20.564 22.077 25.983 27.496 17.498 22.077 9.013 30.562 14.432 39.047 9.013 33.628 17.498 39.047 25.983" transform="rotate(45 30.562 17.498)"/>
    <polygon fill="#000" points="45.591 34.316 40.642 37.477 43.803 32.527 40.642 27.578 45.591 30.739 50.541 27.578 47.38 32.527 50.541 37.477"/>
    <rect width="12" height="11" x="2" y="47" fill="#FFF" stroke="#000" stroke-width="2"/>
    <polygon fill="#FFF" stroke="#000" stroke-width="2" points="1.912 35.847 12.206 35.677 13.468 37.257 13.912 46.847 1.912 46.847"/>
    <polygon fill="#FFF" stroke="#000" stroke-linejoin="round" stroke-width="2" points="13 37 18.038 41.699 23.662 39.52 24 48 13 48"/>
    <rect width="11" height="11" x="13" y="47" fill="#FFF" stroke="#000" stroke-width="2"/>
    <polygon fill="#FFF" stroke="#000" stroke-width="2" points="24 47 34.154 47 35 47.423 35 58 24 58"/>
    <rect width="12" height="11" x="2" y="58" fill="#FFF" stroke="#000" stroke-width="2"/>
    <rect width="11" height="11" x="13" y="58" fill="#FFF" stroke="#000" stroke-width="2"/>
    <rect width="11" height="11" x="24" y="58" fill="#FFF" stroke="#000" stroke-width="2"/>
    <rect width="12" height="11" x="2" y="69" fill="#FFF" stroke="#000" stroke-width="2"/>
    <rect width="11" height="11" x="13" y="69" fill="#FFF" stroke="#000" stroke-width="2"/>
    <rect width="11" height="11" x="24" y="69" fill="#FFF" stroke="#000" stroke-width="2"/>
    <path fill="#FFF" stroke="#000" stroke-width="2" d="M2.02051322,68.7939022 L16.5782016,74.3146962 C16.9504035,74.4558484 17.3562596,74.4827213 17.7438227,74.3918752 L25.9994748,72.4567238 C26.3918424,72.3647516 26.8028424,72.3934595 27.1786139,72.5390854 L35.8658097,75.9057074 C36.250756,76.0548889 36.5044575,76.4252945 36.5044575,76.8381368 L36.5044575,103 C36.5044575,104.104569 35.609027,105 34.5044575,105 L2.50445946,105 C1.39988996,105 0.504459457,104.104569 0.504459457,103 C0.504459457,102.996765 0.504467308,102.993529 0.50448301,102.990294 L0.665931847,69.7240697 C0.668612184,69.1717915 1.118495,68.7262543 1.67077325,68.7289347 C1.79029906,68.7295148 1.9087528,68.7515187 2.02051322,68.7939022 Z"/>
    <rect width="36" height="6" x=".5" y="90" fill="#FFF" stroke="#000" stroke-width="2"/>
    <path fill="#000" d="M4.85529042,69.0532032 C2.33567014,67.8700739 1.73561876,68.1281893 3.05513627,69.8275496 C4.25084475,71.3674606 6.67110374,73.9164303 10.3159132,77.4744585 C11.0631017,78.2038501 12.0658845,78.6121569 13.1100601,78.6121569 L21.3613004,78.6121569 C21.6522198,78.6121569 21.9415922,78.5698411 22.2203299,78.4865383 L26.996422,77.0591689 C27.6385905,76.8672523 28.3265306,76.8959037 28.9505169,77.1405533 L36.5841128,80.1334983 L36.5841128,80.1334983 L36.5044575,76.1532079 L25.8167515,72.2745822 L17.1221236,74.4076766 L11.6315699,69.7900635 L4.85529042,69.0532032 Z"/>
  </g>
</svg>
