<svg xmlns="http://www.w3.org/2000/svg" width="72" height="44" viewBox="0 0 72 44">
  <path d="M35.41 27.734L27.8045 20.0192 38.1205 16.9723C38.65175 16.81605 38.95253 16.25746 38.79628 15.7301 38.64003 15.20276 38.08534 14.90198 37.55408 15.05432L27.14808 18.13242 28.83558 7.24942C28.921517 6.70254 28.54652 6.19082 27.99964 6.10882 27.45276 6.030695 26.94104 6.39788 26.85904 6.94476L25.23404 17.41776 17.85514 9.92946C17.46842 9.53493 16.83564 9.53102 16.44104 9.917741 16.04651 10.304461 16.0426 10.937241 16.429322 11.331841L24.034822 19.046641 13.718822 22.101341C13.187572 22.257591 12.886792 22.816181 13.043042 23.343541 13.171952 23.777131 13.570382 24.062291 14.000072 24.062291 14.093822 24.062291 14.187572 24.046666 14.285232 24.019322L24.687232 20.945122 22.999732 31.824122C22.913794 32.371002 23.288792 32.882722 23.835672 32.964722 23.886453 32.972534 23.941142 32.97644 23.991922 32.97644 24.476292 32.97644 24.902082 32.62097 24.980202 32.12878L26.605202 21.65178 33.984102 29.14008C34.179412 29.33539 34.437222 29.43696 34.695042 29.43696 34.948952 29.43696 35.202852 29.339304 35.398172 29.1518 35.792702 28.76508 35.796612 28.1284 35.40989 27.7338L35.41 27.734zM69.57 33.2111L69.593438 33.2111C70.132498 33.2111 70.577818 32.78131 70.593438 32.23444L71.308278 4.61744C71.323903 4.06666 70.886398 3.60574 70.331718 3.59404 69.769218 3.566696 69.320018 4.01592 69.308318 4.5667L68.593478 32.1877C68.585666 32.73848 69.019258 33.1955 69.570038 33.2111L69.57 33.2111zM70.453 37.691C70.453 39.5152 67.7538 39.5152 67.7538 37.691 67.7538 35.8707 70.453 35.8707 70.453 37.691"/>
  <path d="M11.852 24.855C11.04731 24.13234 10.1684 23.3394 9.2309 22.4683L8.9184 9.2773C11.6059 8.55464 14.4575 8.1992 16.0278 8.0937 16.57858 8.058544 16.99655 7.58198 16.96139 7.0312 16.926233 6.48042 16.45748 6.06636 15.89889 6.09761 15.25045 6.140579 12.13329 6.37886 8.86769 7.20701L8.73097 1.39451C8.719251.84373 8.28566.38281 7.70757.41795 7.15679.429669 6.71929.89061 6.73101 1.44135L6.87945 7.78905C4.14895 8.71093 1.64505 10.11325.78565 12.24215-.02294 14.24605.6919 16.49605 2.91065 18.93745 4.43405 20.61325 5.89505 22.06635 7.25045 23.34765L7.55514 36.17965C4.33244 36.91793 1.54734 36.85934 1.49654 36.85543.94576 36.839805.48484 37.2734.46924 37.82809.453615 38.37887.88721 38.83979 1.43799 38.85539 1.473146 38.859296 1.59815 38.859296 1.80127 38.859296 2.67236 38.859296 4.95747 38.796796 7.60597 38.226486L7.71925 42.988186C7.730969 43.535066 8.17628 43.968656 8.71925 43.968656L8.742688 43.968656C9.293468 43.953031 9.730968 43.495996 9.719248 42.949156L9.594248 37.718656C11.473148 37.148346 13.398948 36.296756 15.043448 35.023356 16.410648 33.960856 17.066848 32.925656 17.109848 31.777256 17.184067 29.644456 15.176248 27.843656 11.852048 24.855356L11.852 24.855zM4.3911 17.5933C2.7349 15.773 2.145 14.2222 2.6411 12.9956 3.18016 11.6558 4.8794 10.6479 6.9302 9.8979L7.18411 20.4999C6.28177 19.60928 5.35211 18.6483 4.39111 17.5937L4.3911 17.5933zM13.813 33.4373C12.5396 34.42558 11.0435 35.1248 9.5396 35.6248L9.29351 25.2418C9.71539 25.62461 10.12554 25.9918 10.51231 26.3434 13.10211 28.6715 15.14901 30.5114 15.10611 31.6989 15.090485 32.20671 14.66861 32.7731 13.81311 33.4372L13.813 33.4373zM65.133 19.926L58.0549 20.59788 59.4104 12.34398C59.500244 11.7971 59.13306 11.28538 58.58618 11.19558 58.0354 11.105737 57.52758 11.47683 57.43778 12.0198L55.99638 20.7932 48.30498 21.52367 49.73078 12.85177C49.820623 12.3049 49.45344 11.79317 48.90656 11.70337 48.35968 11.61357 47.84406 11.98462 47.75816 12.52759L46.24646 21.71509 37.60196 22.5354C37.05118 22.586182 36.64884 23.07446 36.70352 23.6252 36.754301 24.14473 37.1879 24.53145 37.69571 24.53145 37.72696 24.53145 37.75821 24.53145 37.793367 24.527544L45.910567 23.758014 44.891067 29.949414 36.055167 30.789254C35.504387 30.840036 35.102037 31.328314 35.152827 31.879054 35.203608 32.398584 35.637207 32.781394 36.148917 32.781394 36.180167 32.781394 36.211417 32.781394 36.246573 32.777488L44.559073 31.988428 43.426273 38.886828C43.33643 39.433708 43.703613 39.945428 44.250493 40.031328 44.305181 40.043047 44.359873 40.046953 44.414553 40.046953 44.895023 40.046953 45.316893 39.695393 45.398933 39.207113L46.617733 31.785213 54.309133 31.054743 53.109933 38.367243C53.020089 38.914113 53.387273 39.429743 53.934153 39.511743 53.98884 39.523462 54.039623 39.527368 54.094313 39.527368 54.574783 39.527368 55.000563 39.175808 55.078693 38.687528L56.367793 30.851628 63.777993 30.148508C64.328773 30.09382 64.731113 29.609448 64.676433 29.058708 64.625652 28.507928 64.141273 28.086048 63.586633 28.160268L56.699933 28.812608 57.719433 22.617308 65.324933 21.894648C65.875713 21.843867 66.278053 21.355588 66.223373 20.804848 66.172592 20.277508 65.688213 19.875158 65.133573 19.925938L65.133 19.926zM54.641 29.0276L46.9496 29.75807 47.9691 23.56667 55.6605 22.8362 54.641 29.0276z"/>
</svg>
