<svg xmlns="http://www.w3.org/2000/svg" width="115" height="67" viewBox="0 0 115 67">
  <g fill="none" fill-rule="evenodd" transform="translate(0 1)">
    <g transform="translate(16)">
      <path fill="#FFF" stroke="#000" stroke-width="2" d="M25.4668275,5 L57.5331725,5 C58.4547077,5 59.2569553,5.62967157 59.4759033,6.52481905 L72.5130218,59.8258023 C72.7754563,60.8987427 72.118412,61.9812783 71.0454718,62.2437134 C71.0232724,62.2491433 71.0009816,62.2541922 70.9786092,62.258858 C62.2161405,64.086286 52.3899374,65 41.5,65 C30.6100605,65 20.7838557,64.0862857 12.0213857,62.258857 C10.9400848,62.0333444 10.2463263,60.9739661 10.4718337,59.8926642 C10.4764995,59.8702919 10.4815485,59.8480011 10.4869783,59.8258018 L23.5240967,6.52481905 C23.7430447,5.62967157 24.5452923,5 25.4668275,5 Z"/>
      <path stroke="#000" stroke-linecap="round" stroke-width="2" d="M42,5 L49.7182386,0.899685767 C50.750791,0.351142277 52.0079651,0.452473488 52.9393306,1.15931343 L58,5 L58,5"/>
      <g transform="translate(55 6)">
        <path fill="#FFF" stroke="#000" stroke-width="2" d="M33.1735459,10.0215415 L7.51487758,28.9472286 C4.95075823,30.4261939 2.82534401,34.0146926 2.84245666,39.0468483 C2.85977705,44.0790041 4.96209089,48.1653507 7.53820991,48.1739589 L36.4543203,14.1612819" transform="rotate(-8 19.648 29.098)"/>
        <path fill="#000" d="M40,17 L41.4505577,22.0769521 C41.6794494,22.878073 41.215566,23.7130632 40.4144451,23.9419549 C40.2796643,23.9804637 40.1401741,24 40,24 C39.1668217,24 38.4913972,23.3245755 38.4913972,22.4913972 C38.4913972,22.351223 38.5109335,22.2117329 38.5494423,22.0769521 L40,17 L40,17 Z"/>
        <path stroke="#000" stroke-width="2" d="M29.0183015,11.8700595 L31.6181816,11.2500784 C32.2510306,13.3650983 33.565886,14.9143591 35.0065829,14.9320307 C37.0434617,14.957015 38.659234,12.0876399 38.6155115,8.52310209 C38.5717889,4.95856427 36.8851283,2.04868164 34.8482496,2.02369733 C33.3170775,2.00491601 32.0238684,3.62170838 31.4946801,5.93987297 L28.9463281,6.00233594" transform="rotate(-45 33.781 8.478)"/>
      </g>
      <path fill="#FFF" stroke="#000" stroke-width="2" d="M86,8 C86.7688708,10.6558847 87.6374869,12.5214653 88.6058484,13.5967418 C89.9060289,15.040473 91.6460049,16 94,16"/>
      <path stroke="#979797"/>
      <path stroke="#000" stroke-width="2" d="M22 10C7.33333333 10.6949384 0 14.5015228 0 21.4197531 0 31.7970986 2.75 47 13.2916667 47M12 57C21.8333333 59.6666667 31.6666667 61 41.5 61 51.3333333 61 61.1666667 59.6666667 71 57"/>
      <path stroke="#000" stroke-width="2" d="M20 17C27 18.3333333 34 19 41 19 48 19 55 18.3333333 62 17M20 21C27 22.3333333 34 23 41 23 48 23 55 22.3333333 62 21M19 25C26.3333333 26.3333333 33.6666667 27 41 27 48.3333333 27 55.6666667 26.3333333 63 25"/>
    </g>
    <path stroke="#000" stroke-linecap="round" d="M92.7538 61.9100529L106 61.9100529M.83203125 61.9100529L10 61.9100529M109.7538 61.9100529L114.269531 61.9100529M15.7538 61.9100529L20.2695312 61.9100529"/>
  </g>
</svg>
