<svg xmlns="http://www.w3.org/2000/svg" width="103" height="54" viewBox="0 0 103 54">
  <g fill="#FFF" fill-rule="evenodd" stroke="#000" stroke-linejoin="round" stroke-width="2" transform="translate(1 1)">
    <rect width="101" height="6" y="18"/>
    <rect width="101" height="6" y="33"/>
    <polygon points="5 5.871 9.5 0 14 5.871 14 52 5 52"/>
    <polygon points="19 5.871 23.5 0 28 5.871 28 52 19 52"/>
    <polygon points="32 5.871 36.5 0 41 5.871 41 52 32 52"/>
    <polygon points="46 5.871 50.5 0 55 5.871 55 52 46 52"/>
    <polygon points="73 11 75.455 12.945 77.5 11 79.955 12.945 82 11 82 52 73 52"/>
    <polygon points="60 30.246 62.455 28 64.5 30.246 66.955 28 69 30.246 69 52 60 52"/>
    <polygon points="87 5.871 91.5 0 96 5.871 96 52 87 52"/>
  </g>
</svg>
