<svg xmlns="http://www.w3.org/2000/svg" width="121" height="136" viewBox="0 0 121 136">
  <g fill="none" fill-rule="evenodd" transform="translate(0 1)">
    <g stroke="#000" transform="translate(45)">
      <path fill="#FFF" stroke-width="2" d="M2,68 L34,68 C35.1045695,68 36,68.8954305 36,70 L36,94.3507565 C36,99.0719291 33.4404055,103.421997 29.3133581,105.714801 L21.8851434,109.841587 C19.4689632,111.183909 16.5310368,111.183909 14.1148566,109.841587 L6.68664189,105.714801 C2.55959449,103.421997 -1.51844493e-15,99.0719291 0,94.3507565 L0,70 C-1.3527075e-16,68.8954305 0.8954305,68 2,68 Z"/>
      <path stroke-linecap="round" stroke-width="2" d="M18,72.8046875 L18,84.362793"/>
      <path fill="#FFF" stroke-width="2" d="M28,0 C28.5522847,-1.01453063e-16 29,0.44771525 29,1 L29,4 C29,4.55228475 28.5522847,5 28,5 L25.916,5 L25.847,7 L26,7 C26.5522847,7 27,7.44771525 27,8 L27,11 C27,11.5522847 26.5522847,12 26,12 L25.674,12 L24.3253506,51.0345505 C24.3067335,51.5730658 23.8647847,52 23.3259476,52 L23,52 L23,56 C23.5522847,56 24,56.4477153 24,57 L24,60 C24,60.5522847 23.5522847,61 23,61 L23,67.8533272 C23,68.1384294 22.8783081,68.4099762 22.6655113,68.599715 L18.6655113,72.1662861 C18.2862679,72.5044357 17.7137321,72.5044357 17.3344887,72.1662861 L13.3344887,68.599715 C13.1216919,68.4099762 13,68.1384294 13,67.8533272 L13,61 C12.4477153,61 12,60.5522847 12,60 L12,57 C12,56.4477153 12.4477153,56 13,56 L13,52 L12.6741145,52 C12.1352775,52 11.6933287,51.5730658 11.6747116,51.0345505 L10.325,12 L10,12 C9.44771525,12 9,11.5522847 9,11 L9,8 C9,7.44771525 9.44771525,7 10,7 L10.152,7 L10.083,5 L8,5 C7.44771525,5 7,4.55228475 7,4 L7,1 C7,0.44771525 7.44771525,1.01453063e-16 8,0 L28,0 Z"/>
      <path stroke-width="2" d="M13,52 L23,52"/>
      <path stroke-linecap="round" d="M10.5 4.5L13.5 4.5M22.5 11.5L27 11.5"/>
    </g>
    <rect width="121" height="34" y="101" fill="#FFF"/>
    <path fill="#FFF" stroke="#000" stroke-linecap="round" d="M68 .5L78.2128906.5M39 .5L58.6132812.5M7 .5L17.2128906.5M62 .5L64.5.5M0 .5L2.5.5M82 .5L87.1972656.5" transform="translate(23 101)"/>
    <rect width="2" height="2" x="72" y="100" fill="#000" rx="1"/>
    <rect width="2" height="2" x="75" y="100" fill="#000" rx="1"/>
    <rect width="4" height="4" x="80" y="98" fill="#000" rx="2"/>
    <rect width="3" height="3" x="73" y="99" fill="#000" rx="1.5"/>
    <path stroke="#000" stroke-dasharray="4 7" stroke-linecap="round" d="M74.3133581,105.714801 L66.8851434,109.841587 C64.4689632,111.183909 61.5310368,111.183909 59.1148566,109.841587 L51.6866419,105.714801 C47.5595945,103.421997 45,99.0719291 45,94.3507565"/>
  </g>
</svg>
