<svg xmlns="http://www.w3.org/2000/svg" width="90" height="72" viewBox="0 0 90 72">
  <g fill="none" fill-rule="evenodd" transform="translate(1 1)">
    <rect width="70" height="70" fill="#FFF" stroke="#000" stroke-width="2" rx="2"/>
    <g transform="translate(12 12)">
      <circle cx="23" cy="23" r="23" fill="#FFF" stroke="#000" stroke-width="2"/>
      <g fill="#000" transform="rotate(30 8.86 59.43)">
        <path d="M0,0.422565069 C1.33333333,0.140855023 2.33333333,0 3,0 C3.66666667,0 4.66666667,0.140855023 6,0.422565069 L4,12 C3.66666667,11.9326934 3.33333333,11.8990402 3,11.8990402 C2.66666667,11.8990402 2.33333333,11.9326934 2,12 L0,0.422565069 Z"/>
        <path d="M0,30.2035709 C1.33333333,29.9218609 2.33333333,29.7810059 3,29.7810059 C3.66666667,29.7810059 4.66666667,29.9218609 6,30.2035709 L4,41.7810059 C3.66666667,41.7136993 3.33333333,41.680046 3,41.680046 C2.66666667,41.680046 2.33333333,41.7136993 2,41.7810059 L0,30.2035709 Z" transform="matrix(1 0 0 -1 0 71.562)"/>
      </g>
      <circle cx="23" cy="23" r="7" fill="#FFF" stroke="#000" stroke-width="2"/>
      <circle cx="23" cy="23" r="1" fill="#000"/>
    </g>
    <circle cx="59.5" cy="59.5" r="3.5" fill="#FFF" stroke="#000" stroke-width="2"/>
    <g stroke="#000" stroke-width="2" transform="translate(39 10)">
      <rect width="10" height="4" y="34" fill="#FFF"/>
      <polyline points="10 36 20.5 36 46 3"/>
      <circle cx="46" cy="3" r="3" fill="#FFF"/>
    </g>
  </g>
</svg>
