<svg xmlns="http://www.w3.org/2000/svg" width="103" height="97" viewBox="0 0 103 97">
  <g fill="none" fill-rule="evenodd" stroke="#000" stroke-width="2" transform="translate(1 1)">
    <g fill="#FFF" stroke-linejoin="round">
      <g transform="translate(0 34.18)">
        <rect width="50.5" height="7.54" y="53.28"/>
        <polygon points="0 53.28 50.5 0 101 0 50.5 53.28"/>
        <polygon points="50.5 60.82 101 7.54 101 0 50.5 53.28"/>
      </g>
      <g transform="translate(0 17.09)">
        <rect width="50.5" height="7.54" y="53.28"/>
        <polygon points="0 53.28 50.5 0 101 0 50.5 53.28"/>
        <polygon points="50.5 60.82 101 7.54 101 0 50.5 53.28"/>
      </g>
      <rect width="50.5" height="7.54" y="53.28"/>
      <polygon points="0 53.28 50.5 0 101 0 50.5 53.28"/>
      <polygon points="50.5 60.82 101 7.54 101 0 50.5 53.28"/>
    </g>
    <g transform="translate(12.776 .408)">
      <path d="M66.5566556,0.138671875 C63.1557711,8.91632742 67.638661,11.9035996 76.2133939,11.1357422"/>
      <path fill="#FFF" stroke-linejoin="round" d="M48.1640775 40.8144531C40.9353177 16.2805543 40.4059477 40.7030458 28.4121244 32.5556641 23.9929069 29.5536979 23.5926723 19.6192525 22.9902494 15.5668945M.332046248 52.8623047C-.702091514 46.9602612 1.68100082 44.5328628.685073592 38.7822266M6.15187047 33.6152344C15.6175882 46.2954725 16.1735736 34.7479982 30.6391752 52.4526367M43.6030423 47.1269531C36.8361764 43.0575 28.4583176 41.2816544 21.1430814 36.4726562 15.5264316 32.7802999 22.0942345 27.2985756 15.2358548 23.6958008M29.4194486 8.44468256C31.0588516 21.0868823 35.5771634 15.5188975 42.4837759 19.1625977 50.9709026 23.6401248 47.7421309 15.5461535 55.3806372 16.2813794 61.7661616 16.8960027 63.3811999 17.655599 69.6167142 19.1625977M72.0005033 16.1987305C31.9781539 2.37753919 58.6640483 17.0073563 51.4663236 0"/>
    </g>
  </g>
</svg>
