<?xml version="1.0" standalone="no"?>
<!DOCTYPE svg PUBLIC "-//W3C//DTD SVG 20010904//EN"
 "http://www.w3.org/TR/2001/REC-SVG-20010904/DTD/svg10.dtd">
<svg version="1.0" xmlns="http://www.w3.org/2000/svg"
 width="1200.000000pt" height="1200.000000pt" viewBox="0 0 1200.000000 1200.000000"
 preserveAspectRatio="xMidYMid meet">
<metadata>
Created by potrace 1.11, written by Peter Selinger 2001-2013
</metadata>
<g transform="translate(0.000000,1200.000000) scale(0.100000,-0.100000)"
fill="#000000" stroke="none">
<path d="M5699 11706 c-2 -2 -53 -7 -113 -10 -60 -4 -125 -9 -145 -11 -246
-29 -261 -31 -311 -40 -14 -3 -41 -7 -60 -10 -19 -3 -57 -10 -85 -15 -27 -5
-66 -12 -85 -15 -19 -3 -51 -10 -70 -15 -19 -5 -48 -12 -65 -15 -25 -4 -106
-24 -165 -39 -8 -3 -35 -9 -60 -15 -56 -14 -60 -15 -145 -41 -38 -11 -100 -29
-137 -40 -37 -11 -84 -26 -105 -34 -21 -8 -83 -31 -138 -52 -276 -101 -586
-246 -863 -405 -96 -55 -179 -104 -186 -109 -6 -5 -74 -51 -151 -102 -77 -51
-174 -119 -215 -150 -127 -96 -184 -140 -202 -157 -9 -9 -23 -20 -30 -26 -19
-14 -137 -114 -177 -149 -71 -63 -409 -404 -466 -470 -33 -38 -65 -74 -70 -80
-6 -6 -30 -36 -55 -66 -25 -30 -55 -66 -67 -80 -13 -14 -23 -28 -23 -32 0 -3
-6 -13 -13 -20 -49 -51 -324 -442 -350 -498 -4 -8 -16 -28 -27 -45 -11 -16
-30 -48 -42 -70 -12 -22 -27 -48 -33 -57 -52 -84 -204 -385 -270 -533 -202
-452 -363 -1015 -430 -1505 -3 -25 -8 -56 -10 -70 -7 -43 -24 -210 -32 -310
-16 -191 -7 -879 12 -979 2 -9 6 -46 9 -81 4 -36 8 -76 10 -90 6 -47 20 -145
21 -150 1 -3 5 -27 9 -55 41 -260 132 -627 223 -895 38 -113 106 -296 128
-345 7 -16 32 -75 56 -130 58 -136 232 -477 309 -605 109 -182 315 -490 340
-510 4 -3 11 -12 16 -21 11 -20 37 -52 194 -243 164 -199 512 -548 679 -682
13 -10 30 -25 37 -32 8 -8 51 -43 97 -78 45 -36 90 -71 99 -79 95 -78 455
-318 583 -390 28 -15 77 -43 110 -62 88 -50 426 -215 525 -256 609 -255 1177
-393 1835 -445 196 -15 813 -7 970 13 17 2 51 7 78 10 121 14 150 17 267 36
176 28 173 27 300 56 63 14 124 27 135 29 46 8 319 86 435 124 177 58 403 145
565 218 195 87 547 274 663 353 24 16 45 29 48 29 16 0 435 297 501 354 7 6
18 16 25 21 23 17 123 100 134 110 6 5 38 32 70 60 78 66 425 413 494 494 30
35 64 74 75 85 126 134 402 518 557 776 86 144 292 534 297 565 1 3 12 29 24
57 13 29 38 89 56 133 19 44 37 89 42 100 60 140 159 452 223 700 28 108 90
419 100 500 4 28 11 77 16 110 5 33 12 89 15 125 4 36 8 76 11 90 25 154 25
1033 -1 1113 -2 6 -6 44 -10 82 -5 64 -28 234 -40 295 -3 13 -7 42 -10 65 -3
22 -8 47 -10 55 -2 8 -7 29 -9 45 -50 290 -212 825 -340 1117 -8 18 -21 48
-28 66 -7 17 -16 32 -19 32 -3 0 -6 6 -6 13 0 21 -155 335 -236 476 -42 74
-77 138 -77 143 0 4 -4 8 -10 8 -5 0 -10 5 -10 10 0 19 -299 463 -329 490 -4
3 -25 30 -47 60 -42 56 -51 68 -126 156 -24 28 -65 77 -93 110 -27 32 -137
147 -245 254 -177 177 -257 252 -360 336 -19 16 -37 31 -40 34 -3 3 -32 27
-65 53 -33 26 -66 52 -73 58 -48 39 -145 109 -152 109 -4 0 -10 4 -12 9 -7 19
-344 238 -513 333 -132 75 -204 113 -340 179 -88 42 -189 89 -225 103 -71 29
-87 36 -141 60 -152 67 -621 216 -788 251 -9 2 -70 15 -136 29 -146 31 -269
53 -395 71 -107 15 -207 26 -355 41 -70 7 -749 16 -756 10z"/>
</g>
</svg>
